# xmcd
#
# Track frame offsets:
#	150
#	18445
#	34065
#	52041
#	68602
#	85321
#	90328
#	106762
#	121494
#	138549
#	155918
#	169011
#	187446
#	202250
#	219841
#	235428
#	252247
#	269255
#	284824
#
# Disc length: 3965 seconds
#
# Revision: 0
# Processed by: cddbd v1.5.2PL0 Copyright (c) Steve Scherf et al.
# Submitted via: dBpowerAMP V4.0
#
DISCID=220f7b13
DTITLE=Various Artist - CDX 453
DYEAR=2008
DGENRE=Country
TTITLE0=01 Billy Currington - I Don't
TTITLE1=02 Hayes Carll - Its A Shame [radio edit]
TTITLE2=03 Montgomery Gentry - Roll With Me
TTITLE3=04 Toby Keith - She Never Cried In Front Of Me
TTITLE4=05 Bailey Grey - Beach Weekend
TTITLE5=06 Phil Vassar - Story Behind The Song I Would
TTITLE6=07 Phil Vassar - I Would
TTITLE7=08 Jeff Griffith - Fishin' Forever
TTITLE8=09 Rio Rocko - Gecko Tango
TTITLE9=10 The Akins - Look Around
TTITLE10=11 Kate Russell - Powerful Stuff
TTITLE11=12 The Springs - They Choose Love
TTITLE12=13 Ralph Stanley II - Trains Songs
TTITLE13=14 April Taylor - When You Come From Nothing
TTITLE14=15 Charlie Allen - Why Ask Why
TTITLE15=16 Emma Mae Jacob - With You
TTITLE16=17 Jana Seantelle - Memphis To Momma
TTITLE17=18 Colt Ford - No Trash In My Trailer
TTITLE18=19 Raymond Graham - The Price Of Gas Is Killing Me
EXTD=
EXTT0=
EXTT1=
EXTT2=
EXTT3=
EXTT4=
EXTT5=
EXTT6=
EXTT7=
EXTT8=
EXTT9=
EXTT10=
EXTT11=
EXTT12=
EXTT13=
EXTT14=
EXTT15=
EXTT16=
EXTT17=
EXTT18=
PLAYORDER=
